<svg width="64" height="64" viewBox="0 0 64 64" fill="none" xmlns="http://www.w3.org/2000/svg">
<path fill-rule="evenodd" clip-rule="evenodd" d="M32 64C49.6731 64 64 49.6731 64 32C64 14.3269 49.6731 0 32 0C14.3269 0 0 14.3269 0 32C0 49.6731 14.3269 64 32 64Z" fill="white"/>
<path fill-rule="evenodd" clip-rule="evenodd" d="M40.6667 43.9769C39.1982 46.3064 35.8018 46.3064 34.3333 43.9769L26.6186 31.7399C25.0471 29.2471 26.8385 26 29.7854 26L45.2146 26C48.1615 26 49.9529 29.2471 48.3814 31.7399L40.6667 43.9769Z" fill="url(#paint0_linear)"/>
<path fill-rule="evenodd" clip-rule="evenodd" d="M23.3333 21.0231C24.8018 18.6936 28.1982 18.6936 29.6667 21.0231L37.3814 33.2601C38.9529 35.7529 37.1615 39 34.2146 39H18.7854C15.8385 39 14.0471 35.7529 15.6186 33.2601L23.3333 21.0231Z" fill="url(#paint1_linear)"/>
<defs>
<linearGradient id="paint0_linear" x1="36.9912" y1="21.0449" x2="26.3544" y2="39.7008" gradientUnits="userSpaceOnUse">
<stop stop-color="#FFD7A9"/>
<stop offset="1" stop-color="#FFAE70"/>
</linearGradient>
<linearGradient id="paint1_linear" x1="28.3521" y1="44.4372" x2="43.4268" y2="24.8284" gradientUnits="userSpaceOnUse">
<stop stop-color="#CD10FF"/>
<stop offset="1" stop-color="#9F06FF"/>
</linearGradient>
</defs>
</svg>
